<?xml version="1.0" encoding="utf-8"?>
<!-- Generator: Adobe Illustrator 26.2.1, SVG Export Plug-In . SVG Version: 6.00 Build 0)  -->
<svg version="1.1" id="Layer_1" xmlns="http://www.w3.org/2000/svg" xmlns:xlink="http://www.w3.org/1999/xlink" x="0px" y="0px"
	 viewBox="0 0 48 48" style="enable-background:new 0 0 48 48;" xml:space="preserve">
<style type="text/css">
	.st0{display:none;}
	.st1{display:inline;}
	.st2{fill:#FEFEFE;stroke:#1E1E1E;stroke-width:0.5;stroke-miterlimit:10;}
	.st3{fill:#FCB316;}
	.st4{fill:url(#SVGID_1_);}
	.st5{fill:url(#SVGID_00000163778568506063338900000007385251426742871225_);}
	.st6{opacity:0.6;fill:#135C89;enable-background:new    ;}
	.st7{fill:none;}
	.st8{fill:url(#SVGID_00000122700636914169972740000002901016816920426901_);}
	.st9{fill:url(#SVGID_00000047056985218359275930000018100719698890927282_);}
	
		.st10{opacity:0.6;clip-path:url(#SVGID_00000181795462673236176570000009077719708031264408_);fill:#135C89;enable-background:new    ;}
</style>
<g class="st0">
	<path class="st1" d="M39,37.4c0,1.2,0,2.1,0.1,2.7s0.2,1.1,0.3,1.5c0.2,0.4,0.3,0.7,0.5,0.9s0.5,0.4,0.9,0.6c0.4,0.2,1,0.4,1.8,0.6
		v1.5h-13v-1.5c1.1-0.3,1.9-0.6,2.4-1c0.5-0.3,0.8-0.9,0.9-1.6s0.3-2,0.3-3.7V21.5H15.9v15.9c0,1.4,0.1,2.4,0.1,3
		c0.1,0.6,0.3,1.2,0.5,1.5c0.2,0.4,0.5,0.7,1,0.9c0.4,0.2,1.1,0.5,2.1,0.8v1.5H6.4v-1.5C7.7,43.3,8.5,43,9,42.6s0.7-1,0.9-1.7
		c0.1-0.8,0.2-1.9,0.2-3.4v-27C10,9,10,8,9.9,7.3C9.8,6.7,9.6,6.1,9.4,5.8c-0.2-0.4-0.6-0.7-1-0.9C8,4.7,7.3,4.4,6.4,4.2V2.7h13.1
		v1.5c-0.9,0.2-1.6,0.5-2,0.7s-0.7,0.5-1,0.9c-0.2,0.3-0.4,0.9-0.5,1.5C15.9,8,15.9,9,15.9,10.5v11h17.3v-11c0-1.8-0.1-3-0.3-3.7
		c-0.2-0.7-0.5-1.2-0.9-1.5c-0.4-0.3-1.2-0.7-2.5-1V2.7h13.1v1.5c-1.2,0.3-2,0.6-2.4,1s-0.8,0.9-0.9,1.6S39,8.7,39,10.5L39,37.4
		L39,37.4z"/>
	<rect x="13.6" y="4.2" class="st1" width="23.2" height="39.5"/>
	<g class="st1">
		<path class="st2" d="M33.6,33.7c0,1.8,0.1,3.6,0,5.4c-0.3,4.8-4.2,8.2-9.2,8.1c-4.9-0.1-8.7-3.5-8.9-8.1c-0.2-3.6,0-7.2-0.1-10.9
			c0-1.4,0.7-1.9,1.9-2.2c4.9-1.1,9.7-1.1,14.6,0c1.4,0.3,1.9,1.1,1.8,2.5C33.5,30.3,33.6,32,33.6,33.7
			C33.6,33.7,33.6,33.7,33.6,33.7z"/>
		<path class="st3" d="M15.4,13.6c0-1.4,0-2.7,0-4.1c0.1-5.1,3.7-8.6,8.8-8.8c5.3-0.1,9.1,3.2,9.3,8.4c0.1,3.2,0,6.3,0.1,9.5
			c0,1.5-0.4,1.8-2,1.5c-4.9-1.2-9.9-1.1-14.8,0.1c-1.2,0.3-1.4,0.1-1.4-1C15.4,17.4,15.4,15.5,15.4,13.6
			C15.4,13.6,15.4,13.6,15.4,13.6z"/>
	</g>
</g>
<g>
	<g>
		
			<linearGradient id="SVGID_1_" gradientUnits="userSpaceOnUse" x1="-1605.4429" y1="-279.3682" x2="-1605.4429" y2="-295.0458" gradientTransform="matrix(-0.1245 -0.9922 -0.9922 0.1245 -454.0332 -1529.0691)">
			<stop  offset="0" style="stop-color:#F3F6F7"/>
			<stop  offset="0.212" style="stop-color:#E9ECED"/>
			<stop  offset="0.5696" style="stop-color:#CFD2D3"/>
			<stop  offset="1" style="stop-color:#A7AAAC"/>
		</linearGradient>
		<path class="st4" d="M22,18.5c-0.5-4.1,2.4-7.7,6.6-8.3l0,0c4.1-0.5,7.9,2.3,8.4,6.4l2.6,21c0.5,4.1-2.4,7.7-6.6,8.3l0,0
			c-4.1,0.5-7.9-2.3-8.4-6.4L22,18.5"/>
		
			<linearGradient id="SVGID_00000006666834199009006620000000695926057043675009_" gradientUnits="userSpaceOnUse" x1="-1596.4988" y1="-279.332" x2="-1596.4988" y2="-294.8659" gradientTransform="matrix(-0.1245 -0.9922 -0.9922 0.1245 -454.0332 -1529.0691)">
			<stop  offset="0" style="stop-color:#E02803"/>
			<stop  offset="1" style="stop-color:#E92F00"/>
		</linearGradient>
		<path style="fill:url(#SVGID_00000006666834199009006620000000695926057043675009_);" d="M23.3,29.1l7.2-0.9l7.8-1L37,16.7
			c-0.5-4.1-4.3-6.9-8.4-6.4l0,0c-4.1,0.5-7.1,4.2-6.6,8.3"/>
		<polyline class="st6" points="22.8,29.2 38.8,27.2 38.8,27 22.8,29 		"/>
		<path class="st7" d="M22,18.5l2.6,21c0.5,4.1,4.3,6.9,8.4,6.4l0,0c4.1-0.5,7.1-4.2,6.6-8.3l-2.6-21c-0.5-4.1-4.3-6.9-8.4-6.4l0,0
			C24.4,10.8,21.5,14.5,22,18.5"/>
	</g>
	<g>
		<g>
			
				<linearGradient id="SVGID_00000122717898373346280920000003789312801119267221_" gradientUnits="userSpaceOnUse" x1="-1168.983" y1="-441.59" x2="-1168.983" y2="-460.4333" gradientTransform="matrix(0.2676 -0.9636 -0.9636 -0.2676 -102.8592 -1223.4456)">
				<stop  offset="0" style="stop-color:#F3F6F7"/>
				<stop  offset="0.212" style="stop-color:#E9ECED"/>
				<stop  offset="0.5696" style="stop-color:#CFD2D3"/>
				<stop  offset="1" style="stop-color:#A7AAAC"/>
			</linearGradient>
			<path style="fill:url(#SVGID_00000122717898373346280920000003789312801119267221_);" d="M31.2,13.6l-7,25.1
				c-1.3,4.8-6.4,7.7-11.2,6.3l0,0c-4.8-1.3-7.7-6.4-6.3-11.2l7-25.1C15,3.9,20,1,24.8,2.4l0,0C29.7,3.7,32.5,8.7,31.2,13.6z"/>
			
				<linearGradient id="SVGID_00000139987114314010508530000012369734865235333032_" gradientUnits="userSpaceOnUse" x1="-1157.9293" y1="-441.5474" x2="-1157.9293" y2="-460.2176" gradientTransform="matrix(0.2676 -0.9636 -0.9636 -0.2676 -102.8592 -1223.4456)">
				<stop  offset="0" style="stop-color:#00A9FF"/>
				<stop  offset="1" style="stop-color:#0084E9"/>
			</linearGradient>
			<path style="fill:url(#SVGID_00000139987114314010508530000012369734865235333032_);" d="M13.7,8.7l-3.5,12.6l8.4,2.3l9.1,2.5
				l3.5-12.6c1.3-4.8-1.5-9.8-6.3-11.2l0,0C20,1,15,3.8,13.7,8.7z"/>
		</g>
		<g>
			<g>
				<defs>
					<path id="SVGID_00000088819319471739744960000006813932061703637422_" d="M3,24.7l22.3,13.4c4.3,2.6,9.9,1.2,12.5-3.1l0,0
						c2.6-4.3,1.2-9.9-3.1-12.5L12.4,9.2C8.1,6.6,2.5,8-0.1,12.3l0,0C-2.6,16.6-1.3,22.2,3,24.7z"/>
				</defs>
				<clipPath id="SVGID_00000131328972544873634900000016974288310164295354_">
					<use xlink:href="#SVGID_00000088819319471739744960000006813932061703637422_"  style="overflow:visible;"/>
				</clipPath>
				
					<rect x="18.8" y="14" transform="matrix(0.2676 -0.9635 0.9635 0.2676 -8.984 35.5543)" style="opacity:0.6;clip-path:url(#SVGID_00000131328972544873634900000016974288310164295354_);fill:#135C89;enable-background:new    ;" width="0.3" height="19.3"/>
			</g>
		</g>
	</g>
</g>
</svg>
